if (_typeface_js && _typeface_js.loadFace) _typeface_js.loadFace({"glyphs":{"S":{"x_min":92.59375,"x_max":955.625,"ha":956,"o":"m 751 1097 q 738 1168 751 1130 q 696 1236 724 1205 q 628 1288 669 1267 q 532 1308 587 1308 q 446 1291 486 1308 q 376 1245 406 1275 q 330 1175 347 1215 q 313 1087 313 1134 q 330 1001 313 1041 q 376 929 347 960 q 445 881 405 899 q 533 863 486 863 q 685 832 610 863 q 821 745 761 801 q 918 609 881 688 q 955 431 955 529 q 944 338 955 388 q 909 241 932 289 q 851 150 886 193 q 767 73 815 106 q 658 19 719 39 q 523 0 597 0 q 346 36 425 0 q 211 131 267 73 q 123 263 154 189 q 92 411 92 337 l 175 411 q 180 361 175 392 q 200 293 186 330 q 239 219 214 256 q 303 150 264 181 q 397 100 342 120 q 525 81 451 81 q 656 105 593 81 q 767 173 719 128 q 844 283 815 218 q 873 429 873 348 q 851 558 873 495 q 786 670 829 621 q 678 750 742 720 q 527 780 613 780 q 406 809 461 780 q 312 882 351 838 q 253 981 274 926 q 232 1086 232 1035 q 249 1182 232 1129 q 302 1281 265 1235 q 396 1357 338 1326 q 534 1389 453 1389 q 642 1370 596 1389 q 722 1324 688 1352 q 777 1262 755 1296 q 811 1195 799 1227 q 829 1136 824 1163 q 834 1097 834 1109 l 751 1097 l 751 1097 "},"\u0000":{"x_min":0,"x_max":0,"ha":0},"/":{"x_min":92.59375,"x_max":988.96875,"ha":989,"o":"m 92 0 l 896 1389 l 988 1389 l 191 0 l 92 0 l 92 0 "},"K":{"x_min":92.59375,"x_max":895.4375,"ha":895,"o":"m 92 1389 l 178 1389 l 178 778 l 781 1380 l 895 1380 l 204 689 l 894 0 l 773 0 l 177 596 l 177 0 l 92 0 l 92 1389 l 92 1389 "},"7":{"x_min":92.59375,"x_max":1039.890625,"ha":1040,"o":"m 132 0 l 896 1303 l 92 1303 l 92 1389 l 1039 1389 l 237 0 l 132 0 l 132 0 "},"d":{"x_min":92.59375,"x_max":1041.75,"ha":1042,"o":"m 955 1389 l 1041 1389 l 1041 0 l 955 0 l 955 204 q 902 137 931 165 q 841 86 873 108 q 775 50 809 64 q 712 25 742 35 q 563 0 639 2 q 435 18 496 0 q 322 69 375 37 q 227 146 270 101 q 155 243 185 190 q 108 354 125 296 q 92 473 92 413 q 126 648 92 563 q 223 800 161 733 q 373 907 286 866 q 566 947 460 947 q 722 921 648 944 q 786 896 753 911 q 850 859 819 881 q 908 808 881 838 q 955 739 936 778 l 955 1389 l 955 1389 m 564 80 q 718 111 646 80 q 843 195 789 142 q 926 320 896 249 q 957 474 957 392 q 926 626 957 555 q 843 751 896 698 q 718 835 789 804 q 564 866 646 866 q 412 835 483 866 q 287 751 340 804 q 203 626 234 698 q 172 474 172 555 q 203 320 172 392 q 287 195 234 249 q 412 111 340 142 q 564 80 483 80 l 564 80 "},",":{"x_min":92.59375,"x_max":173.15625,"ha":173,"o":"m 92 112 l 173 112 l 173 -167 l 92 -167 l 92 112 l 92 112 "},"Y":{"x_min":92.59375,"x_max":1045.453125,"ha":1045,"o":"m 92 1389 l 178 1389 l 178 913 q 206 766 178 838 q 285 638 234 694 q 408 549 337 583 q 568 514 480 514 q 707 538 647 514 q 811 596 767 561 q 883 675 854 632 q 929 758 912 718 q 953 829 946 798 q 960 873 960 860 l 960 1389 l 1045 1389 l 1045 873 q 1031 787 1045 834 q 991 693 1017 740 q 928 600 965 645 q 844 519 891 554 q 741 463 797 485 q 622 442 685 442 l 622 0 l 536 0 l 536 442 q 377 475 456 442 q 234 568 298 507 q 131 717 171 629 q 92 914 92 804 l 92 1389 l 92 1389 "},"E":{"x_min":92.59375,"x_max":1040.828125,"ha":1041,"o":"m 1040 1389 l 1040 1302 l 178 1302 l 178 935 l 823 935 l 823 849 l 178 849 l 178 86 l 1040 86 l 1040 0 l 92 0 l 92 1389 l 1040 1389 l 1040 1389 "},"y":{"x_min":92.59375,"x_max":1032.484375,"ha":1032,"o":"m 92 930 l 176 930 l 176 461 q 209 300 176 372 q 295 176 241 227 q 418 97 349 125 q 561 69 488 69 q 663 84 613 69 q 755 125 712 99 q 833 185 798 150 q 894 257 869 219 q 934 336 920 296 q 948 414 948 376 l 948 930 l 1032 930 l 1032 -6 q 1019 -100 1032 -50 q 981 -200 1007 -150 q 917 -296 955 -250 q 827 -379 879 -343 q 711 -437 775 -415 q 569 -458 647 -458 l 569 -373 q 725 -341 655 -373 q 844 -257 795 -309 q 920 -140 893 -205 q 947 -7 947 -75 l 947 200 q 899 131 926 161 q 841 79 872 100 q 778 42 811 57 q 714 17 745 26 q 563 -8 642 -5 q 374 29 461 -8 q 225 131 287 67 q 127 279 162 195 q 92 457 92 363 l 92 930 l 92 930 "},"\"":{"x_min":92.59375,"x_max":311.140625,"ha":311,"o":"m 92 1389 l 176 1389 l 176 1094 l 92 1094 l 92 1389 l 92 1389 m 226 1389 l 311 1389 l 311 1094 l 226 1094 l 226 1389 l 226 1389 "},"g":{"x_min":92.59375,"x_max":1028.78125,"ha":1029,"o":"m 943 930 l 1028 930 l 1028 -36 q 1016 -116 1028 -71 q 978 -207 1003 -161 q 915 -300 953 -254 q 826 -380 877 -345 q 710 -437 775 -415 q 566 -458 645 -458 l 566 -374 q 684 -356 631 -374 q 780 -311 738 -339 q 853 -247 822 -283 q 904 -173 884 -211 q 934 -100 925 -136 q 944 -36 944 -63 l 944 203 q 894 135 922 164 q 836 83 866 105 q 773 46 805 62 q 712 22 741 31 q 566 -3 641 0 q 382 31 468 -3 q 231 130 296 67 q 130 278 167 192 q 92 463 92 363 q 129 648 92 563 q 230 796 166 733 q 379 894 294 859 q 561 930 464 930 q 704 904 634 927 q 766 879 734 894 q 830 843 799 864 q 891 792 862 821 q 945 724 921 763 l 943 930 l 943 930 m 561 75 q 711 106 640 75 q 833 189 781 137 q 916 312 886 241 q 946 462 946 382 q 916 612 946 541 q 833 734 886 682 q 711 817 781 787 q 561 848 640 848 q 410 817 480 848 q 287 734 339 787 q 205 612 235 682 q 175 462 175 541 q 205 312 175 382 q 287 189 235 241 q 410 106 339 137 q 561 75 480 75 l 561 75 "},"e":{"x_min":92.59375,"x_max":1012.125,"ha":1012,"o":"m 1012 459 l 169 459 q 175 410 169 444 q 197 334 181 376 q 241 246 213 291 q 311 163 268 200 q 413 101 353 125 q 552 77 473 77 q 703 109 633 81 q 763 139 733 121 q 822 184 794 157 q 873 247 850 211 q 910 331 896 284 l 992 331 q 946 222 975 269 q 884 140 918 175 q 812 81 850 105 q 737 41 774 57 q 551 0 650 4 q 407 20 472 0 q 291 77 342 41 q 202 160 239 112 q 141 259 165 207 q 104 365 116 311 q 92 468 92 419 q 104 558 92 509 q 139 658 115 608 q 200 755 163 708 q 288 838 237 802 q 405 897 339 875 q 550 919 470 919 q 689 899 625 919 q 803 845 752 879 q 894 766 854 812 q 959 669 933 721 q 998 564 985 618 q 1012 459 1012 510 l 1012 459 m 173 535 l 928 535 q 892 636 915 592 q 840 712 869 680 q 779 766 812 744 q 713 803 746 788 q 550 842 638 837 q 388 803 463 837 q 322 766 355 788 q 261 712 289 744 q 209 636 232 680 q 173 535 186 592 l 173 535 "},"J":{"x_min":92.59375,"x_max":1041.75,"ha":1042,"o":"m 955 1389 l 1041 1389 l 1041 440 q 1005 280 1041 359 q 904 138 968 200 q 754 38 840 76 q 570 0 668 0 q 465 12 520 0 q 358 50 411 25 q 257 113 305 75 q 172 205 209 152 q 114 324 136 257 q 92 473 92 391 l 177 473 q 202 335 177 405 q 275 209 226 265 q 397 117 325 152 q 567 81 470 81 q 727 114 655 81 q 849 199 799 147 q 927 314 900 250 q 955 440 955 378 l 955 1389 l 955 1389 "},"|":{"x_min":92.59375,"x_max":178.71875,"ha":179,"o":"m 92 1389 l 178 1389 l 178 0 l 92 0 l 92 1389 l 92 1389 "},"^":{"x_min":92.59375,"x_max":614.859375,"ha":615,"o":"m 92 931 l 353 1389 l 614 931 l 525 931 l 353 1236 l 182 931 l 92 931 l 92 931 "},"q":{"x_min":92.59375,"x_max":1398.265625,"ha":1028,"o":"m 934 926 l 1017 926 l 1017 0 q 1052 -167 1017 -96 q 1142 -286 1087 -238 q 1264 -356 1197 -333 q 1398 -379 1332 -379 l 1398 -463 q 1201 -422 1288 -463 q 1056 -315 1115 -381 q 966 -167 997 -250 q 935 0 935 -85 l 935 199 q 883 132 912 161 q 823 83 854 104 q 760 47 792 62 q 699 24 728 33 q 555 0 628 1 q 438 14 495 0 q 329 58 380 29 q 234 128 277 87 q 159 220 190 169 q 110 332 127 272 q 92 462 92 393 q 125 635 92 551 q 219 783 158 718 q 365 887 279 848 q 555 926 450 926 q 697 901 627 923 q 758 876 726 891 q 821 840 790 862 q 882 790 852 819 q 935 725 911 762 l 934 926 l 934 926 m 552 78 q 701 108 631 78 q 823 190 771 138 q 905 312 875 242 q 935 460 935 381 q 905 608 935 538 q 823 730 875 678 q 701 812 771 782 q 552 842 631 842 q 403 812 473 842 q 282 730 334 782 q 201 608 231 678 q 171 460 171 538 q 201 312 171 381 q 282 190 231 242 q 403 108 334 138 q 552 78 473 78 l 552 78 "},"b":{"x_min":92.59375,"x_max":1041.75,"ha":1042,"o":"m 178 0 l 92 0 l 92 1389 l 178 1389 l 178 740 q 229 808 200 779 q 289 859 258 838 q 353 896 320 881 q 416 921 386 911 q 565 947 488 944 q 752 909 665 947 q 903 807 839 872 q 1004 657 967 743 q 1041 475 1041 572 q 1004 293 1041 379 q 903 142 967 207 q 753 38 839 76 q 567 0 666 0 q 419 26 490 2 q 356 52 388 37 q 291 89 323 67 q 231 142 260 112 q 178 212 201 173 l 178 0 l 178 0 m 567 80 q 720 111 649 80 q 844 195 791 142 q 928 320 898 249 q 959 473 959 391 q 928 625 959 554 q 844 750 898 697 q 720 834 791 803 q 567 865 649 865 q 414 834 486 865 q 290 750 343 803 q 206 625 237 697 q 175 473 175 554 q 206 320 175 391 q 290 195 237 249 q 414 111 343 142 q 567 80 486 80 l 567 80 "},"D":{"x_min":92.59375,"x_max":871.359375,"ha":871,"o":"m 92 1389 l 175 1389 q 357 1364 269 1389 q 522 1295 445 1339 q 664 1186 600 1250 q 774 1046 728 1123 q 845 881 820 969 q 871 697 871 792 q 847 513 871 601 q 778 346 823 424 q 671 205 734 269 q 531 95 608 141 q 365 25 454 50 q 179 0 276 0 l 92 0 l 92 1389 l 92 1389 m 178 79 q 332 100 256 79 q 476 158 408 120 q 601 250 544 196 q 700 374 659 305 q 766 523 742 442 q 789 694 789 603 q 760 890 789 802 q 681 1046 730 977 q 569 1164 632 1114 q 437 1246 505 1213 q 302 1294 369 1278 q 178 1309 235 1309 l 178 79 l 178 79 "},"z":{"x_min":92.59375,"x_max":1029.71875,"ha":1030,"o":"m 92 937 l 1010 937 l 253 76 l 1029 76 l 1029 0 l 92 0 l 848 860 l 92 860 l 92 937 l 92 937 "},"w":{"x_min":92.59375,"x_max":1914.046875,"ha":1914,"o":"m 92 951 l 179 951 l 179 436 q 189 375 179 411 q 219 300 199 339 q 271 220 239 260 q 346 149 302 181 q 445 98 389 117 q 569 78 500 78 q 718 111 647 78 q 842 195 788 144 q 928 308 896 246 q 960 428 960 370 l 960 951 l 1046 951 l 1046 427 q 1080 300 1046 363 q 1170 188 1114 237 q 1295 109 1226 139 q 1435 78 1364 78 q 1512 89 1469 78 q 1598 121 1554 100 q 1683 174 1641 142 q 1756 249 1724 206 q 1808 346 1789 292 q 1827 464 1827 400 l 1827 951 l 1914 951 l 1914 464 q 1902 370 1914 421 q 1864 267 1889 319 q 1800 167 1839 215 q 1708 81 1761 119 q 1587 22 1654 44 q 1436 0 1519 0 q 1255 36 1340 4 q 1182 70 1219 50 q 1110 121 1144 90 q 1048 192 1076 151 q 1002 287 1020 233 q 954 192 983 233 q 891 121 925 151 q 820 70 857 90 q 747 36 783 50 q 569 0 663 4 q 432 19 496 0 q 315 73 368 39 q 220 150 262 106 q 150 243 179 194 q 107 341 122 291 q 92 438 92 391 l 92 951 l 92 951 "},"$":{"x_min":92.59375,"x_max":945.453125,"ha":945,"o":"m 527 1301 q 442 1284 481 1301 q 374 1238 402 1267 q 328 1169 345 1209 q 312 1082 312 1129 q 328 997 312 1038 q 373 927 344 957 q 442 879 402 897 q 528 861 481 861 q 679 830 604 861 q 813 744 753 800 q 908 610 872 688 q 945 434 945 531 q 935 346 945 392 q 903 255 925 300 q 851 167 882 210 q 775 91 819 125 q 677 36 732 58 q 556 9 623 13 l 556 -180 l 481 -180 l 481 9 q 321 54 393 16 q 199 149 250 92 q 120 275 148 205 q 92 414 92 344 l 174 414 q 179 365 174 396 q 199 298 185 334 q 237 225 212 262 q 300 157 262 187 q 393 107 339 126 q 520 88 447 88 q 649 112 587 88 q 758 180 711 136 q 835 287 806 224 q 863 432 863 351 q 842 559 863 497 q 778 670 821 622 q 671 749 735 719 q 523 779 607 779 q 402 807 456 779 q 310 880 349 836 q 251 978 272 925 q 230 1081 230 1031 q 244 1170 230 1121 q 290 1262 259 1218 q 370 1338 322 1305 q 488 1378 419 1370 l 487 1569 l 562 1569 l 562 1379 q 657 1354 616 1374 q 727 1306 698 1334 q 775 1246 756 1278 q 805 1183 794 1213 q 821 1129 816 1153 q 825 1092 825 1104 l 744 1092 q 730 1162 744 1126 q 689 1230 716 1199 q 622 1281 663 1261 q 527 1301 581 1301 l 527 1301 "},"™":{"x_min":92.59375,"x_max":897.296875,"ha":897,"o":"m 92 1389 l 489 1389 l 489 1326 l 329 1326 l 329 987 l 267 987 l 267 1326 l 92 1326 l 92 1389 l 92 1389 m 531 987 l 593 987 l 593 1248 l 713 1126 l 835 1248 l 835 986 l 897 986 l 897 1389 l 714 1209 l 531 1389 l 531 987 l 531 987 "},"\\":{"x_min":92.59375,"x_max":988.96875,"ha":989,"o":"m 92 1389 l 191 1389 l 988 0 l 896 0 l 92 1389 l 92 1389 "},"~":{"x_min":92.59375,"x_max":795.4375,"ha":795,"o":"m 141 639 l 92 686 q 162 754 125 730 q 231 790 199 779 q 305 805 268 803 q 381 793 346 805 q 447 767 415 781 q 510 740 479 752 q 574 729 541 729 q 635 741 604 730 q 692 772 662 752 q 750 831 723 792 l 795 787 q 731 714 768 739 q 658 676 693 688 q 574 661 617 662 q 494 672 526 661 q 433 698 462 684 q 375 723 404 711 q 305 735 346 735 q 252 723 280 733 q 200 694 228 713 q 141 639 171 675 "},"-":{"x_min":92.59375,"x_max":668.578125,"ha":669,"o":"m 92 713 l 668 713 l 668 624 l 92 624 l 92 713 l 92 713 "},"Q":{"x_min":92.59375,"x_max":1481.59375,"ha":1482,"o":"m 1211 148 q 1143 99 1178 120 q 1072 62 1108 77 q 1001 36 1036 47 q 934 18 965 25 q 786 0 859 1 q 586 28 679 0 q 416 107 493 57 q 278 224 338 157 q 177 369 218 291 q 114 529 136 446 q 92 694 92 612 q 117 876 92 788 q 186 1041 141 963 q 293 1182 230 1118 q 432 1292 355 1246 q 598 1363 509 1338 q 783 1389 687 1389 q 979 1362 887 1389 q 1148 1288 1071 1336 q 1287 1176 1226 1241 q 1392 1034 1349 1111 q 1457 870 1435 957 q 1480 694 1480 784 q 1454 516 1477 604 q 1429 437 1444 478 q 1393 356 1414 397 q 1343 277 1372 316 q 1276 205 1314 238 l 1481 0 l 1359 0 l 1211 148 l 1211 148 m 946 415 l 1068 415 l 1223 261 q 1281 325 1256 290 q 1325 395 1306 359 q 1356 467 1343 431 q 1376 537 1368 503 q 1399 694 1396 614 q 1376 859 1399 780 q 1312 1006 1353 938 q 1214 1130 1271 1074 q 1089 1225 1158 1186 q 943 1286 1021 1264 q 783 1308 865 1308 q 624 1286 700 1308 q 479 1223 547 1263 q 355 1127 411 1183 q 258 1003 299 1071 q 195 857 217 935 q 173 698 173 780 q 191 550 173 625 q 246 408 210 476 q 335 280 282 339 q 456 175 388 220 q 607 106 525 131 q 787 80 690 80 q 916 96 851 82 q 975 111 944 101 q 1037 133 1005 120 q 1098 163 1068 146 q 1156 205 1128 181 l 946 415 l 946 415 "},"M":{"x_min":92.59375,"x_max":1786.25,"ha":1786,"o":"m 172 0 l 92 0 l 92 1378 l 934 537 l 1786 1389 l 1786 0 l 1706 0 l 1706 1198 l 937 428 l 174 1191 l 172 0 l 172 0 "},"C":{"x_min":92.59375,"x_max":1430.671875,"ha":1431,"o":"m 1430 953 l 1345 953 q 1275 1069 1314 1019 q 1190 1157 1235 1120 q 1097 1220 1145 1194 q 1005 1262 1050 1245 q 787 1306 900 1301 q 603 1279 688 1306 q 450 1207 519 1252 q 330 1100 382 1161 q 242 970 277 1038 q 189 830 207 901 q 171 690 171 758 q 190 551 171 623 q 245 412 209 480 q 335 283 282 344 q 457 177 388 223 q 609 105 525 132 q 788 78 692 78 q 1001 121 899 84 q 1091 161 1045 137 q 1182 222 1138 186 q 1266 307 1226 258 q 1337 420 1306 356 l 1430 420 q 1355 281 1399 341 q 1259 177 1311 222 q 1153 102 1208 133 q 1046 52 1099 72 q 787 0 923 6 q 569 31 667 0 q 394 115 472 62 q 260 238 317 168 q 166 386 203 309 q 110 542 128 463 q 92 694 92 622 q 111 846 92 766 q 169 1002 130 926 q 265 1150 208 1079 q 400 1273 323 1220 q 575 1357 478 1326 q 788 1389 672 1389 q 998 1358 905 1389 q 1163 1282 1091 1328 q 1285 1182 1234 1237 q 1368 1079 1336 1127 q 1415 996 1400 1031 q 1430 953 1430 961 l 1430 953 "},"[":{"x_min":92.59375,"x_max":423.1875,"ha":423,"o":"m 423 1389 l 423 1310 l 171 1310 l 171 79 l 423 79 l 423 0 l 92 0 l 92 1389 l 423 1389 l 423 1389 "},"L":{"x_min":92.59375,"x_max":1039.890625,"ha":1040,"o":"m 92 1389 l 178 1389 l 178 86 l 1039 86 l 1039 0 l 92 0 l 92 1389 l 92 1389 "},"!":{"x_min":92.59375,"x_max":223.171875,"ha":223,"o":"m 112 440 l 112 1389 l 199 1389 l 199 440 l 112 440 l 112 440 m 92 64 q 111 18 92 37 q 157 0 130 0 q 203 18 184 0 q 223 64 223 37 q 203 111 223 91 q 157 130 184 130 q 111 111 130 130 q 92 64 92 91 "}," ":{"x_min":0,"x_max":0,"ha":602},"{":{"x_min":92.59375,"x_max":703.765625,"ha":704,"o":"m 703 1389 l 703 1302 q 589 1275 641 1302 q 496 1204 538 1248 q 424 1105 455 1160 q 373 994 393 1050 q 342 888 352 938 q 332 805 332 838 l 207 680 l 333 553 q 342 497 333 538 q 370 404 351 456 q 419 296 389 352 q 490 193 449 239 q 584 116 531 146 q 703 86 638 86 l 703 0 q 561 32 625 0 q 449 114 498 64 q 364 224 400 163 q 305 342 328 285 q 271 444 282 399 q 260 510 260 489 l 92 678 l 253 839 q 266 926 253 873 q 303 1040 278 979 q 365 1163 327 1101 q 452 1276 402 1226 q 565 1357 502 1326 q 703 1389 627 1389 "},"X":{"x_min":92.59375,"x_max":1501.96875,"ha":1502,"o":"m 1501 1389 l 842 647 l 1416 0 l 1317 0 l 797 593 l 278 0 l 178 0 l 754 646 l 92 1388 l 191 1388 l 798 704 l 1403 1389 l 1501 1389 l 1501 1389 "},"P":{"x_min":92.59375,"x_max":1018.59375,"ha":1019,"o":"m 92 1389 l 175 1389 l 175 1182 q 222 1250 195 1221 q 280 1301 250 1279 q 343 1338 311 1323 q 406 1363 375 1352 q 556 1389 477 1386 q 744 1351 659 1389 q 890 1249 829 1313 q 984 1101 951 1185 q 1018 925 1018 1016 q 985 748 1018 832 q 891 601 951 664 q 745 500 830 538 q 558 463 661 463 q 407 488 479 465 q 344 512 376 497 q 280 548 311 526 q 223 598 250 569 q 175 665 196 627 l 175 0 l 92 0 l 92 1389 l 92 1389 m 555 544 q 704 574 634 544 q 825 656 774 604 q 907 776 876 707 q 937 926 937 846 q 907 1074 937 1004 q 825 1195 876 1143 q 704 1277 774 1247 q 555 1307 634 1307 q 406 1277 475 1307 q 285 1195 337 1247 q 204 1074 234 1143 q 174 926 174 1004 q 204 776 174 846 q 285 656 234 707 q 406 574 337 604 q 555 544 475 544 l 555 544 "},"%":{"x_min":92.59375,"x_max":993.59375,"ha":994,"o":"m 92 1126 q 113 1228 92 1180 q 169 1311 134 1276 q 253 1368 205 1347 q 355 1389 300 1389 q 458 1368 410 1389 q 542 1311 506 1347 q 598 1228 577 1276 q 619 1126 619 1180 q 598 1023 619 1071 q 542 939 577 975 q 458 882 506 903 q 355 862 410 862 q 253 882 300 862 q 169 939 205 903 q 113 1023 134 975 q 92 1126 92 1071 l 92 1126 m 355 949 q 424 963 392 949 q 480 1001 456 976 q 518 1057 504 1025 q 532 1126 532 1088 q 518 1194 532 1162 q 480 1250 504 1226 q 424 1288 456 1274 q 355 1301 392 1301 q 287 1288 319 1301 q 231 1250 254 1274 q 193 1194 207 1226 q 179 1126 179 1162 q 193 1057 179 1088 q 231 1001 207 1025 q 287 963 254 976 q 355 949 319 949 l 355 949 m 730 0 q 832 20 785 0 q 916 77 880 41 q 972 160 951 112 q 993 262 993 208 q 972 365 993 317 q 916 449 951 413 q 832 506 880 485 q 730 526 785 526 q 628 506 675 526 q 544 449 580 485 q 488 365 509 413 q 467 262 467 317 q 488 160 467 208 q 544 77 509 112 q 628 20 580 41 q 730 0 675 0 l 730 0 m 553 262 q 567 331 553 300 q 605 387 581 363 q 662 425 629 412 q 730 439 694 439 q 799 425 766 439 q 855 387 831 412 q 893 331 879 363 q 907 262 907 300 q 893 194 907 226 q 855 138 879 162 q 799 100 831 114 q 730 87 766 87 q 662 100 694 87 q 605 138 629 114 q 567 194 581 162 q 553 262 553 226 l 553 262 m 92 1 l 191 1 l 987 1389 l 894 1389 l 92 1 l 92 1 "},"#":{"x_min":92.59375,"x_max":1402.890625,"ha":1403,"o":"m 896 1389 l 994 1389 l 751 967 l 1061 967 l 1304 1389 l 1402 1389 l 1159 967 l 1389 967 l 1389 888 l 1107 888 l 882 487 l 1100 487 l 1100 409 l 830 409 l 600 0 l 501 0 l 738 408 l 422 408 l 191 0 l 92 0 l 329 408 l 92 408 l 92 488 l 375 488 l 606 888 l 382 888 l 382 967 l 652 967 l 896 1389 l 896 1389 m 467 487 l 784 487 l 1014 888 l 698 888 l 467 487 l 467 487 "},"_":{"x_min":92.59375,"x_max":1109.34375,"ha":1109,"o":"m 92 -2 l 1109 -2 l 1109 -87 l 92 -87 l 92 -2 l 92 -2 "},"+":{"x_min":92.59375,"x_max":624.125,"ha":624,"o":"m 92 713 l 317 713 l 317 938 l 399 938 l 399 713 l 624 713 l 624 632 l 400 632 l 400 407 l 317 407 l 317 632 l 92 632 l 92 713 l 92 713 "},")":{"x_min":92.59375,"x_max":555.59375,"ha":556,"o":"m 92 1301 l 92 1389 q 270 1336 186 1389 q 418 1191 354 1284 q 518 970 481 1098 q 555 694 555 843 q 518 418 555 545 q 417 197 480 290 q 269 52 353 104 q 92 0 186 0 l 92 85 q 227 127 160 85 q 349 248 295 169 q 436 440 402 326 q 469 696 469 553 q 454 873 469 791 q 412 1022 438 955 q 349 1142 385 1089 q 271 1229 312 1194 q 183 1283 229 1264 q 92 1301 137 1301 "},"'":{"x_min":92.59375,"x_max":177.796875,"ha":178,"o":"m 92 1389 l 177 1389 l 177 1093 l 92 1093 l 92 1389 l 92 1389 "},"}":{"x_min":92.59375,"x_max":703.765625,"ha":704,"o":"m 92 1389 q 231 1357 168 1389 q 344 1276 293 1326 q 431 1163 394 1226 q 494 1040 469 1101 q 531 926 518 979 q 543 839 543 873 l 703 678 l 536 510 q 525 444 536 489 q 490 342 513 399 q 431 224 467 285 q 347 114 396 163 q 234 32 298 64 q 92 0 171 0 l 92 86 q 211 116 158 86 q 306 193 264 146 q 376 296 347 239 q 425 404 406 352 q 453 497 444 456 q 463 553 463 538 l 589 680 l 464 805 q 454 888 464 838 q 424 994 444 938 q 372 1105 403 1050 q 300 1204 341 1160 q 206 1275 259 1248 q 92 1302 154 1302 l 92 1389 l 92 1389 "},"a":{"x_min":92.59375,"x_max":1015.828125,"ha":1016,"o":"m 933 922 l 1015 922 l 1015 0 l 933 0 l 933 201 q 881 135 910 163 q 821 85 852 106 q 758 49 790 63 q 697 25 726 34 q 552 0 626 2 q 371 37 455 0 q 225 138 287 75 q 128 285 163 201 q 92 461 92 368 q 128 637 92 553 q 225 783 163 720 q 372 884 287 847 q 554 922 456 922 q 700 897 629 919 q 761 873 729 888 q 824 837 793 858 q 883 787 855 815 q 934 720 912 758 l 933 922 l 933 922 m 554 78 q 703 108 633 78 q 824 190 773 138 q 906 312 876 242 q 936 461 936 381 q 906 609 936 539 q 824 731 876 679 q 703 813 773 783 q 554 843 633 843 q 405 813 475 843 q 284 731 336 783 q 202 609 232 679 q 172 461 172 539 q 202 312 172 381 q 284 190 232 242 q 405 108 336 138 q 554 78 475 78 l 554 78 "},"T":{"x_min":92.59375,"x_max":1040.828125,"ha":1041,"o":"m 92 1389 l 1040 1389 l 1040 1302 l 625 1302 l 625 0 l 540 0 l 540 1302 l 92 1302 l 92 1389 l 92 1389 "},"=":{"x_min":92.59375,"x_max":625.046875,"ha":625,"o":"m 92 614 l 92 533 l 625 533 l 625 614 l 92 614 l 92 614 m 625 813 l 625 731 l 92 731 l 92 813 l 625 813 l 625 813 "},"N":{"x_min":92.59375,"x_max":1060.265625,"ha":1060,"o":"m 92 0 l 92 1389 l 974 239 l 974 1389 l 1060 1389 l 1060 5 l 177 1152 l 177 0 l 92 0 l 92 0 "},"2":{"x_min":92.59375,"x_max":926,"ha":926,"o":"m 451 1389 q 660 1345 571 1389 q 808 1232 749 1301 q 896 1079 867 1163 q 926 914 926 995 q 915 816 926 863 q 888 728 905 769 q 847 652 870 687 q 799 591 824 617 q 710 502 774 565 q 645 438 683 475 q 556 350 607 400 q 439 233 505 299 q 292 86 374 167 l 926 86 l 926 0 l 92 0 l 745 652 q 784 700 765 673 q 816 763 802 728 q 838 836 830 797 q 847 916 847 875 q 838 983 847 944 q 810 1066 829 1023 q 760 1151 791 1109 q 685 1227 729 1193 q 583 1282 641 1261 q 451 1302 525 1302 q 342 1287 396 1301 q 246 1249 296 1275 q 159 1177 196 1224 l 103 1233 q 154 1284 126 1262 q 211 1323 182 1306 q 269 1351 239 1339 q 325 1369 298 1362 q 451 1389 388 1386 "},"j":{"x_min":-231.5,"x_max":262.0625,"ha":262,"o":"m 197 1259 q 151 1278 170 1259 q 132 1324 132 1297 q 151 1370 132 1351 q 197 1389 170 1389 q 243 1370 224 1389 q 262 1324 262 1351 q 243 1278 262 1297 q 197 1259 224 1259 m 151 952 l 151 24 q 116 -149 151 -75 q 26 -270 81 -223 q -96 -342 -28 -318 q -231 -365 -164 -365 l -231 -450 q -64 -418 -148 -450 q 86 -325 19 -386 q 194 -178 152 -265 q 236 20 236 -90 l 236 952 l 151 952 l 151 952 "},"Z":{"x_min":92.59375,"x_max":1450.109375,"ha":1450,"o":"m 106 1389 l 1417 1389 l 257 76 l 1450 76 l 1450 0 l 92 0 l 1263 1317 l 106 1319 l 106 1389 l 106 1389 "},"u":{"x_min":92.59375,"x_max":1030.640625,"ha":1031,"o":"m 92 937 l 176 937 l 176 468 q 207 308 176 380 q 291 184 238 236 q 413 105 344 133 q 559 77 483 77 q 661 92 612 77 q 753 133 710 107 q 831 192 796 159 q 892 263 866 225 q 931 340 917 301 q 945 415 945 379 l 945 937 l 1030 937 l 1030 0 l 946 0 l 946 200 q 895 134 924 162 q 835 84 866 105 q 772 48 804 62 q 709 25 739 34 q 562 0 638 2 q 362 40 450 0 q 215 147 275 81 q 124 298 155 213 q 92 468 92 382 l 92 937 l 92 937 "},"1":{"x_min":92.59375,"x_max":416.703125,"ha":417,"o":"m 416 1389 l 416 0 l 331 0 l 331 1200 l 144 1013 l 92 1064 l 416 1389 l 416 1389 "},"k":{"x_min":92.59375,"x_max":652.828125,"ha":653,"o":"m 178 0 l 92 0 l 92 1389 l 178 1389 l 178 481 q 260 494 216 481 q 347 534 304 508 q 430 598 390 560 q 500 685 470 636 q 548 795 530 735 q 566 926 566 855 l 652 926 q 633 789 652 853 q 583 670 613 725 q 516 572 552 615 q 447 499 480 529 q 388 453 414 469 q 354 437 362 437 q 392 425 365 437 q 451 388 418 413 q 520 327 485 363 q 585 243 555 291 q 633 133 614 194 q 652 0 652 73 l 566 0 q 540 153 566 89 q 475 261 514 217 q 387 331 435 305 q 296 372 339 358 q 220 390 253 386 q 178 395 187 395 l 178 0 l 178 0 "},"€":{"x_min":92.59375,"x_max":701.90625,"ha":702,"o":"m 700 1389 l 701 1302 q 575 1269 630 1302 q 477 1183 519 1235 q 406 1070 435 1132 q 358 953 376 1009 q 332 856 340 898 q 324 800 324 813 l 485 800 l 485 714 l 317 714 l 317 660 l 483 660 l 483 574 l 324 574 q 333 515 324 558 q 361 419 342 473 q 410 306 380 364 q 482 198 440 247 q 579 117 525 149 q 701 86 633 86 l 701 0 q 569 29 630 0 q 456 106 507 58 q 366 214 406 153 q 300 340 326 275 q 259 465 273 404 q 245 575 245 526 l 92 575 l 92 662 l 237 662 l 237 714 l 92 714 l 92 800 l 245 800 q 258 912 245 850 q 298 1040 272 975 q 362 1168 324 1105 q 452 1279 401 1230 q 565 1358 502 1328 q 700 1389 627 1389 "},"<":{"x_min":92.59375,"x_max":847.296875,"ha":847,"o":"m 845 1079 l 845 980 l 257 647 l 847 314 l 847 216 l 92 648 l 845 1079 l 845 1079 "},"t":{"x_min":92.59375,"x_max":566.71875,"ha":567,"o":"m 92 1389 l 178 1389 l 178 954 l 566 954 l 566 868 l 177 868 l 177 461 q 207 312 177 381 q 290 193 237 244 q 413 113 342 142 q 566 85 484 85 l 566 0 q 371 39 459 0 q 222 143 284 78 q 126 291 160 208 q 92 460 92 374 l 92 1389 l 92 1389 "},"W":{"x_min":92.59375,"x_max":1796.4375,"ha":1796,"o":"m 1715 1389 l 1796 1389 l 1796 0 l 938 858 l 92 12 l 92 1389 l 173 1389 l 173 197 l 941 965 l 1715 191 l 1715 1389 l 1715 1389 "},"v":{"x_min":92.59375,"x_max":1069.53125,"ha":1070,"o":"m 177 935 l 581 152 l 985 937 l 1069 937 l 581 0 l 92 935 l 177 935 l 177 935 "},">":{"x_min":92.59375,"x_max":835.25,"ha":835,"o":"m 93 1079 l 835 654 l 92 229 l 92 326 l 673 653 l 93 982 l 93 1079 l 93 1079 "},"s":{"x_min":92.59375,"x_max":688.9375,"ha":689,"o":"m 521 733 q 509 784 521 762 q 478 823 497 807 q 436 848 459 839 q 392 857 413 857 q 340 847 363 857 q 300 819 317 837 q 275 778 284 801 q 266 726 266 754 q 271 689 266 712 q 293 646 276 667 q 340 611 310 625 q 422 596 371 596 q 509 575 463 596 q 596 515 556 553 q 662 423 636 476 q 688 303 688 369 q 670 205 688 258 q 613 106 651 151 q 516 30 575 61 q 378 0 458 0 q 270 21 322 0 q 179 78 218 42 q 116 163 139 114 q 92 266 92 212 l 173 266 q 187 204 173 237 q 229 141 201 170 q 295 92 256 112 q 383 73 334 73 q 463 87 423 73 q 536 129 503 100 q 588 201 568 158 q 609 301 609 244 q 589 385 609 346 q 540 453 569 424 q 479 499 511 482 q 422 515 447 515 q 336 527 378 515 q 260 563 294 538 q 206 628 226 588 q 185 725 185 668 q 195 790 185 753 q 229 859 205 826 q 293 914 253 891 q 392 937 333 937 q 469 925 437 937 q 525 893 502 913 q 563 850 549 874 q 587 804 578 826 q 598 762 595 781 q 601 733 601 743 l 521 733 l 521 733 "},"B":{"x_min":92.59375,"x_max":1026.015625,"ha":1026,"o":"m 175 33 l 92 33 l 92 1389 l 175 1389 q 238 1382 197 1389 q 329 1356 279 1375 q 430 1304 378 1337 q 525 1220 482 1271 q 594 1095 567 1168 q 622 924 622 1022 q 755 886 698 912 q 855 825 813 860 q 926 751 897 791 q 975 672 955 712 q 1026 466 1019 578 q 998 294 1026 367 q 926 170 970 222 q 829 85 883 118 q 724 33 775 51 q 628 7 672 14 q 559 0 584 0 q 472 10 522 0 q 369 44 422 20 q 265 109 316 68 q 175 212 213 150 l 175 33 l 175 33 m 548 925 q 531 1044 548 991 q 489 1136 515 1096 q 429 1204 463 1176 q 362 1251 396 1232 q 176 1311 280 1297 l 176 925 l 548 925 l 548 925 m 176 478 q 208 315 176 388 q 292 189 239 241 q 415 109 345 137 q 562 80 485 80 q 707 110 638 80 q 831 192 777 140 q 915 312 884 243 q 947 462 947 382 q 917 610 947 540 q 834 731 887 679 q 711 812 782 782 q 559 841 640 841 l 176 841 l 176 478 l 176 478 "},"?":{"x_min":92.59375,"x_max":613.015625,"ha":613,"o":"m 395 440 l 310 440 l 310 954 q 316 950 310 951 q 331 948 323 949 q 352 947 340 947 q 422 963 389 947 q 480 1004 455 978 q 519 1063 505 1030 q 534 1127 534 1095 q 519 1193 534 1161 q 478 1252 503 1226 q 420 1295 453 1278 q 352 1311 388 1311 q 285 1296 317 1311 q 230 1257 253 1282 q 192 1200 206 1232 q 178 1131 178 1167 l 92 1131 q 113 1229 92 1182 q 169 1311 134 1276 q 252 1368 205 1347 q 352 1389 300 1389 q 452 1369 405 1389 q 535 1315 500 1350 q 592 1233 571 1281 q 613 1128 613 1185 q 590 1024 613 1071 q 535 944 568 977 q 463 893 501 911 q 395 875 425 875 l 395 440 l 395 440 m 290 64 q 309 18 290 37 q 355 0 328 0 q 401 18 382 0 q 420 64 420 37 q 401 111 420 91 q 355 130 382 130 q 309 111 328 130 q 290 64 290 91 "},"H":{"x_min":92.59375,"x_max":1041.75,"ha":1042,"o":"m 177 1389 l 177 934 l 956 934 l 956 1389 l 1041 1389 l 1041 0 l 955 0 l 955 849 l 177 849 l 177 0 l 92 0 l 92 1389 l 177 1389 l 177 1389 "},"c":{"x_min":92.59375,"x_max":973.21875,"ha":973,"o":"m 973 638 l 889 638 q 845 706 870 676 q 794 756 821 735 q 738 792 766 777 q 682 816 709 806 q 550 842 618 838 q 391 808 462 842 q 271 719 320 774 q 197 595 223 663 q 171 458 171 526 q 198 321 171 389 q 274 199 225 253 q 393 112 323 145 q 550 78 463 78 q 680 103 617 81 q 736 127 707 112 q 792 162 764 141 q 844 212 819 184 q 889 279 870 241 l 973 279 q 926 187 954 226 q 864 118 898 147 q 795 68 831 88 q 724 35 759 48 q 550 0 641 4 q 403 21 468 0 q 287 80 337 43 q 199 163 236 116 q 139 262 162 211 q 104 363 115 312 q 92 457 92 414 q 103 551 92 500 q 137 653 114 602 q 197 752 161 704 q 285 838 234 800 q 401 897 336 875 q 550 919 467 919 q 725 884 642 914 q 797 850 761 871 q 866 800 833 830 q 927 731 900 771 q 973 638 955 691 l 973 638 "},"&":{"x_min":92.59375,"x_max":1013.96875,"ha":1014,"o":"m 1013 389 l 868 247 l 1013 0 l 907 0 l 799 180 q 741 122 772 153 q 672 63 711 90 q 583 18 633 36 q 467 0 533 0 q 335 24 401 0 q 214 96 268 49 q 126 213 161 143 q 92 375 92 283 q 100 453 92 416 q 119 519 107 489 q 148 574 132 550 q 182 615 164 598 l 229 663 q 301 735 256 689 q 417 851 346 780 q 354 951 378 912 q 317 1011 330 989 q 294 1049 300 1036 q 275 1097 278 1074 q 272 1151 272 1121 q 288 1238 272 1195 q 336 1314 305 1281 q 413 1368 367 1348 q 515 1389 458 1389 q 628 1362 583 1389 q 699 1297 673 1335 q 736 1219 725 1259 q 747 1151 747 1178 q 745 1128 747 1145 q 738 1090 743 1111 q 726 1050 734 1070 q 706 1018 718 1030 l 675 988 q 621 932 657 969 q 525 836 585 896 l 827 323 l 1013 511 l 1013 389 l 1013 389 m 482 913 q 552 988 524 958 q 600 1038 581 1019 q 633 1072 621 1060 q 644 1089 639 1078 q 653 1112 650 1101 q 659 1134 657 1124 q 662 1150 662 1144 q 651 1203 662 1176 q 620 1251 640 1229 q 573 1285 600 1272 q 511 1298 545 1298 q 444 1284 472 1298 q 399 1248 416 1270 q 373 1201 381 1226 q 364 1151 364 1175 q 371 1112 364 1130 q 388 1076 377 1094 q 405 1047 393 1067 q 434 997 415 1029 q 482 913 452 965 l 482 913 m 330 643 q 282 594 308 621 q 236 536 257 568 q 200 464 214 503 q 186 375 186 425 q 209 257 186 310 q 271 168 232 204 q 361 112 310 131 q 466 92 412 92 q 550 104 514 92 q 611 131 586 115 q 653 162 637 146 q 679 187 669 177 l 699 206 q 723 230 709 216 q 758 263 738 244 l 456 774 q 408 724 431 747 q 368 682 386 700 q 330 643 348 661 l 330 643 "},"I":{"x_min":92.59375,"x_max":1039.890625,"ha":1040,"o":"m 92 1389 l 1039 1389 l 1039 1302 l 625 1302 l 625 86 l 1039 86 l 1039 0 l 92 0 l 92 86 l 540 86 l 540 1302 l 92 1302 l 92 1389 l 92 1389 "},"G":{"x_min":92.59375,"x_max":1474.1875,"ha":1474,"o":"m 1446 898 l 1362 898 q 1347 941 1362 907 q 1303 1021 1333 976 q 1226 1118 1273 1067 q 1115 1212 1179 1169 q 967 1283 1051 1255 q 781 1311 884 1311 q 594 1283 679 1311 q 442 1208 510 1255 q 323 1100 374 1162 q 238 969 272 1038 q 187 830 204 901 q 170 695 170 759 q 186 568 170 636 q 236 432 202 500 q 319 301 269 364 q 438 190 370 238 q 594 112 507 141 q 786 84 680 84 q 976 112 890 84 q 1130 188 1063 141 q 1246 294 1197 235 q 1327 413 1295 352 q 1375 530 1359 474 q 1390 626 1390 586 l 757 626 l 757 711 l 1474 711 l 1474 0 l 1391 0 l 1391 381 q 1320 257 1362 311 q 1229 164 1277 204 q 1129 98 1181 125 q 1028 53 1077 71 q 785 7 913 12 q 578 36 673 7 q 406 116 483 65 q 270 234 328 166 q 172 378 212 301 q 112 535 132 454 q 92 693 92 615 q 112 852 92 771 q 171 1011 132 934 q 269 1157 211 1088 q 404 1277 327 1226 q 575 1358 480 1328 q 783 1389 671 1389 q 988 1357 895 1389 q 1155 1278 1081 1326 q 1283 1171 1228 1229 q 1374 1058 1338 1113 q 1428 960 1410 1003 q 1446 898 1446 916 l 1446 898 "},"`":{"x_min":92.59375,"x_max":364.84375,"ha":365,"o":"m 92 1389 l 192 1389 l 364 1088 l 263 1088 l 92 1389 l 92 1389 "},"(":{"x_min":92.59375,"x_max":555.59375,"ha":556,"o":"m 555 87 l 555 0 q 377 52 462 0 q 230 197 293 104 q 129 418 166 290 q 92 694 92 545 q 130 970 92 843 q 231 1191 167 1098 q 378 1336 294 1284 q 555 1389 462 1389 l 555 1303 q 419 1261 487 1303 q 299 1140 352 1219 q 212 948 245 1062 q 178 692 178 835 q 212 436 178 549 q 298 246 245 324 q 419 127 351 168 q 555 87 487 87 "},"U":{"x_min":92.59375,"x_max":1501.96875,"ha":1502,"o":"m 92 1389 l 178 1389 l 178 690 q 200 536 178 612 q 260 392 221 460 q 355 266 300 324 q 480 167 411 209 q 629 102 549 125 q 797 78 709 78 q 963 100 884 78 q 1112 163 1043 123 q 1237 260 1180 204 q 1333 384 1293 316 q 1395 530 1373 452 q 1416 689 1416 607 l 1416 1389 l 1501 1389 l 1501 0 l 1416 0 l 1416 367 q 1340 245 1384 298 q 1247 155 1297 193 q 1145 90 1198 116 q 1042 46 1092 63 q 797 0 925 5 q 607 25 698 0 q 439 97 517 51 q 297 207 361 143 q 187 348 233 272 q 117 512 142 425 q 92 690 92 599 l 92 1389 l 92 1389 "},"F":{"x_min":92.59375,"x_max":1040.828125,"ha":1041,"o":"m 1040 1389 l 1040 1302 l 178 1302 l 178 934 l 823 934 l 823 850 l 178 850 l 178 0 l 92 0 l 92 1389 l 1040 1389 l 1040 1389 "},"r":{"x_min":92.59375,"x_max":556.53125,"ha":557,"o":"m 92 896 l 175 896 l 175 702 q 225 766 197 738 q 284 815 252 794 q 347 850 315 836 q 410 873 379 863 q 556 897 481 894 l 556 815 q 433 798 488 815 q 336 753 378 781 q 263 691 294 725 q 213 621 233 656 q 185 554 194 586 q 175 500 175 522 l 175 0 l 92 0 l 92 896 l 92 896 "},":":{"x_min":92.59375,"x_max":227.796875,"ha":228,"o":"m 92 361 q 112 408 92 388 q 160 428 132 428 q 207 408 187 428 q 227 361 227 388 q 207 313 227 333 q 160 293 187 293 q 112 313 132 293 q 92 361 92 333 l 92 361 m 160 0 q 207 19 187 0 q 227 67 227 39 q 207 115 227 95 q 160 135 187 135 q 112 115 132 135 q 92 67 92 95 q 112 19 92 39 q 160 0 132 0 l 160 0 "},"x":{"x_min":92.59375,"x_max":993.59375,"ha":994,"o":"m 993 926 l 589 459 l 993 0 l 897 0 l 543 405 l 189 0 l 93 0 l 498 459 l 92 926 l 183 926 l 542 512 l 903 926 l 993 926 l 993 926 "},"*":{"x_min":92.59375,"x_max":518.5625,"ha":519,"o":"m 272 1388 l 343 1388 l 343 1207 l 482 1294 l 518 1236 l 376 1152 l 518 1070 l 483 1015 l 343 1096 l 343 924 l 272 924 l 272 1094 l 130 1011 l 92 1067 l 244 1152 l 92 1238 l 127 1296 l 272 1214 l 272 1388 l 272 1388 "},"V":{"x_min":92.59375,"x_max":1536.234375,"ha":1536,"o":"m 92 1389 l 179 1389 l 813 171 l 1448 1389 l 1536 1389 l 813 0 l 92 1389 l 92 1389 "},"h":{"x_min":92.59375,"x_max":1040.828125,"ha":1041,"o":"m 92 1389 l 178 1389 l 178 739 q 230 808 201 778 q 291 860 259 838 q 356 897 323 882 q 420 922 388 912 q 571 948 492 945 q 758 909 672 948 q 907 806 844 870 q 1005 658 969 741 q 1040 486 1040 575 l 1040 0 l 954 0 l 954 486 q 935 609 954 554 q 884 707 916 664 q 812 780 852 750 q 728 830 771 811 q 643 859 685 850 q 566 868 600 868 q 425 839 495 868 q 301 763 356 811 q 212 653 246 715 q 177 525 177 591 l 177 0 l 92 0 l 92 1389 l 92 1389 "},"0":{"x_min":92.59375,"x_max":1030.640625,"ha":1031,"o":"m 92 694 q 109 878 92 789 q 156 1044 125 967 q 230 1185 187 1122 q 325 1294 273 1249 q 437 1364 376 1339 q 562 1389 497 1389 q 686 1364 626 1389 q 798 1294 746 1339 q 893 1185 850 1249 q 966 1044 936 1122 q 1013 878 997 967 q 1030 694 1030 789 q 1013 509 1030 598 q 966 344 997 421 q 893 203 936 266 q 798 94 850 139 q 686 25 746 50 q 562 0 626 0 q 437 25 497 0 q 325 94 376 50 q 230 203 273 139 q 156 344 187 266 q 109 510 125 421 q 92 694 92 599 l 92 694 m 562 85 q 710 133 640 85 q 831 263 779 181 q 913 457 883 346 q 943 694 943 568 q 913 931 943 820 q 831 1125 883 1042 q 710 1255 779 1207 q 562 1303 640 1303 q 460 1282 509 1303 q 369 1220 411 1260 q 291 1125 326 1180 q 231 1001 256 1069 q 193 856 207 934 q 179 694 179 778 q 193 532 179 610 q 231 387 207 454 q 291 263 256 319 q 369 168 326 208 q 460 106 411 128 q 562 85 509 85 l 562 85 "},".":{"x_min":92.59375,"x_max":209.28125,"ha":209,"o":"m 92 58 q 109 99 92 82 q 150 116 126 116 q 192 99 175 116 q 209 58 209 82 q 192 17 209 34 q 150 0 175 0 q 109 17 126 0 q 92 58 92 34 l 92 58 "},"@":{"x_min":92.59375,"x_max":1011.1875,"ha":1011,"o":"m 92 459 q 133 656 92 570 q 239 800 174 741 q 387 888 305 858 q 551 918 469 918 q 725 883 642 918 q 872 786 809 848 q 973 640 936 725 q 1011 459 1011 556 q 975 289 1006 370 q 940 218 961 254 q 890 148 920 182 q 819 84 860 113 q 725 32 778 54 l 725 287 q 671 243 700 258 q 614 220 641 227 q 551 211 584 212 q 465 225 511 211 q 382 270 420 239 q 320 348 345 300 q 296 462 296 396 q 320 576 296 528 q 381 654 344 624 q 464 699 419 685 q 551 713 509 713 q 615 704 584 712 q 672 683 642 697 q 724 643 701 670 l 724 713 l 800 713 l 800 172 q 875 259 849 210 q 913 353 901 308 q 928 461 926 405 q 900 604 928 536 q 822 723 872 672 q 702 805 772 775 q 550 836 633 836 q 390 802 460 836 q 272 715 320 769 q 199 594 224 662 q 175 460 175 527 q 211 293 175 363 q 302 175 247 222 q 424 106 357 129 q 551 83 490 83 l 551 0 q 415 19 477 0 q 301 72 352 38 q 211 150 250 105 q 145 246 172 195 q 106 351 119 297 q 92 459 92 406 l 92 459 m 551 286 q 619 299 588 286 q 674 336 650 312 q 711 391 698 360 q 725 459 725 423 q 711 526 725 495 q 674 581 698 558 q 619 619 650 605 q 551 632 588 632 q 484 619 515 632 q 429 581 452 605 q 392 526 405 558 q 378 459 378 495 q 392 391 378 423 q 429 336 405 360 q 484 299 452 312 q 551 286 515 286 l 551 286 "},"f":{"x_min":92.59375,"x_max":566.71875,"ha":567,"o":"m 566 1389 l 566 1310 q 396 1271 470 1310 q 274 1173 323 1232 q 200 1044 225 1113 q 175 914 175 976 l 566 914 l 566 836 l 178 836 l 178 0 l 92 0 l 92 913 q 135 1112 92 1024 q 245 1262 177 1201 q 398 1356 313 1324 q 566 1389 482 1389 "},";":{"x_min":92.59375,"x_max":226.875,"ha":227,"o":"m 92 364 q 112 412 92 392 q 160 431 131 431 q 207 412 187 431 q 226 364 226 392 q 207 317 226 337 q 160 297 187 297 q 112 317 131 297 q 92 364 92 337 l 92 364 m 112 -170 l 194 -170 l 194 113 l 112 113 l 112 -170 l 112 -170 "},"i":{"x_min":92.59375,"x_max":224.09375,"ha":224,"o":"m 158 1257 q 112 1276 131 1257 q 92 1323 92 1296 q 112 1369 92 1350 q 158 1389 131 1389 q 204 1369 185 1389 q 224 1323 224 1350 q 204 1276 224 1296 q 158 1257 185 1257 m 112 948 l 112 0 l 197 0 l 197 948 l 112 948 l 112 948 "},"6":{"x_min":92.59375,"x_max":1050.078125,"ha":1050,"o":"m 811 1389 l 923 1389 l 478 944 q 505 951 489 949 q 536 954 521 952 q 570 956 552 956 q 716 936 650 956 q 836 880 783 915 q 930 797 889 844 q 996 697 970 750 q 1036 588 1023 644 q 1050 479 1050 532 q 1027 327 1050 395 q 967 206 1004 259 q 880 113 929 152 q 778 49 831 75 q 671 12 725 24 q 570 0 617 0 q 425 20 491 0 q 307 77 360 41 q 214 160 254 112 q 146 260 174 207 q 106 369 119 313 q 92 477 92 425 q 106 594 92 541 q 142 690 119 646 q 196 773 165 735 q 263 846 227 811 q 367 949 296 878 q 439 1019 398 978 q 534 1114 480 1061 q 657 1236 588 1168 q 811 1389 725 1304 l 811 1389 m 571 82 q 725 113 652 82 q 850 198 797 144 q 934 323 903 251 q 965 476 965 395 q 934 630 965 558 q 850 756 903 702 q 725 840 797 809 q 571 871 652 871 q 418 840 489 871 q 292 756 346 809 q 207 630 238 702 q 176 476 176 558 q 207 323 176 395 q 292 198 238 251 q 418 113 346 144 q 571 82 489 82 l 571 82 "},"A":{"x_min":92.59375,"x_max":1039.890625,"ha":1040,"o":"m 178 0 l 92 0 l 92 913 q 133 1111 92 1023 q 240 1261 174 1199 q 391 1356 306 1323 q 565 1389 476 1389 q 682 1374 625 1389 q 793 1332 740 1360 q 891 1265 846 1305 q 969 1172 936 1225 q 1021 1055 1002 1119 q 1039 915 1039 990 l 1039 0 l 953 0 l 953 829 l 177 829 l 178 0 l 178 0 m 170 914 l 962 914 q 934 1052 962 982 q 856 1180 907 1123 q 732 1274 805 1238 q 566 1311 658 1311 q 400 1274 474 1311 q 276 1180 327 1238 q 197 1052 225 1123 q 170 914 170 982 l 170 914 "},"n":{"x_min":92.59375,"x_max":1030.640625,"ha":1031,"o":"m 92 0 l 92 937 l 177 937 l 177 729 q 189 752 177 735 q 223 792 200 769 q 277 841 245 815 q 352 888 310 866 q 447 923 395 909 q 561 937 500 937 q 738 901 653 937 q 888 803 824 865 q 992 657 953 741 q 1030 477 1030 574 l 1030 0 l 945 0 l 945 478 q 921 608 945 541 q 850 729 898 675 q 731 819 803 784 q 562 854 659 854 q 443 837 497 854 q 346 792 388 820 q 271 729 303 764 q 218 657 239 693 q 187 584 198 620 q 176 522 176 549 l 176 392 q 176 229 176 326 q 177 0 176 132 l 92 0 l 92 0 "},"O":{"x_min":92.59375,"x_max":1481.59375,"ha":1482,"o":"m 92 694 q 117 878 92 789 q 187 1044 142 967 q 295 1185 232 1122 q 436 1294 359 1249 q 602 1364 513 1339 q 787 1389 691 1389 q 971 1364 882 1389 q 1137 1294 1060 1339 q 1278 1185 1214 1249 q 1386 1044 1341 1122 q 1456 878 1431 967 q 1481 694 1481 789 q 1456 509 1481 598 q 1386 344 1431 421 q 1278 203 1341 266 q 1137 94 1214 139 q 971 25 1060 50 q 787 0 882 0 q 602 25 690 0 q 436 94 513 50 q 295 203 359 139 q 187 344 232 266 q 117 510 142 421 q 92 694 92 599 l 92 694 m 787 83 q 1025 131 913 83 q 1219 262 1136 179 q 1350 456 1301 345 q 1398 694 1398 567 q 1350 932 1398 821 q 1219 1126 1301 1043 q 1025 1257 1136 1209 q 787 1305 913 1305 q 549 1257 660 1305 q 355 1126 438 1209 q 224 932 272 1043 q 175 694 175 821 q 224 456 175 567 q 355 262 272 345 q 549 131 438 179 q 787 83 660 83 l 787 83 "},"3":{"x_min":92.59375,"x_max":923.21875,"ha":923,"o":"m 92 1389 l 923 1389 l 475 940 q 636 907 556 940 q 780 813 716 874 q 882 666 843 751 q 922 476 922 580 q 907 358 922 417 q 863 247 892 300 q 794 149 835 194 q 699 70 752 103 q 581 18 645 37 q 441 0 516 0 q 313 19 376 2 q 257 37 287 26 q 199 64 228 48 q 143 102 170 80 q 92 152 115 124 l 150 211 q 189 168 167 187 q 236 137 212 150 q 284 114 260 124 q 332 100 309 105 q 442 84 386 86 q 600 114 528 84 q 722 198 671 145 q 802 323 774 251 q 830 475 830 394 q 806 611 830 541 q 733 737 782 680 q 613 829 685 793 q 445 865 540 865 q 367 857 406 864 q 294 836 334 851 q 222 796 255 822 l 737 1310 l 92 1310 l 92 1389 l 92 1389 "},"]":{"x_min":92.59375,"x_max":423.1875,"ha":423,"o":"m 92 1389 l 423 1389 l 423 0 l 92 0 l 92 79 l 344 79 l 344 1310 l 92 1310 l 92 1389 l 92 1389 "},"m":{"x_min":92.59375,"x_max":1883.484375,"ha":1883,"o":"m 92 0 l 92 937 l 176 937 l 176 730 q 189 757 176 738 q 225 799 201 775 q 281 846 248 822 q 358 890 315 870 q 452 924 401 911 q 562 937 503 937 q 686 919 628 937 q 790 875 743 902 q 875 814 838 848 q 937 749 912 781 q 975 691 962 717 q 988 650 988 664 q 1001 691 988 664 q 1040 750 1014 718 q 1102 815 1065 782 q 1187 875 1139 848 q 1291 919 1234 902 q 1413 937 1348 937 q 1584 903 1500 937 q 1735 808 1668 869 q 1842 663 1802 748 q 1883 475 1883 578 l 1883 0 l 1799 0 l 1799 478 q 1772 613 1799 546 q 1696 734 1746 680 q 1575 822 1647 788 q 1413 856 1503 856 q 1255 823 1326 856 q 1135 737 1185 790 q 1057 616 1085 684 q 1030 479 1030 549 l 1030 0 l 946 0 l 946 480 q 924 606 946 539 q 854 727 901 672 q 734 819 807 783 q 559 856 661 856 q 434 837 489 856 q 336 788 378 818 q 263 719 294 757 q 214 645 233 682 q 186 575 195 608 q 176 522 176 542 l 176 0 l 92 0 l 92 0 "},"9":{"x_min":92.59375,"x_max":1051.015625,"ha":1051,"o":"m 332 0 l 219 0 l 664 445 q 630 437 647 439 q 600 433 613 435 q 571 431 585 431 q 433 450 497 431 q 316 503 369 470 q 221 582 262 537 q 150 682 179 628 q 107 793 122 735 q 92 909 92 851 q 132 1105 92 1016 q 239 1256 173 1193 q 393 1354 306 1319 q 572 1389 479 1389 q 751 1355 664 1389 q 904 1260 838 1322 q 1011 1109 971 1198 q 1051 910 1051 1021 q 1033 780 1051 836 q 988 677 1016 724 q 922 591 960 631 q 844 511 885 551 q 738 406 807 475 l 332 0 l 332 0 m 571 517 q 724 548 652 517 q 850 632 796 579 q 934 757 903 686 q 965 911 965 829 q 934 1064 965 992 q 850 1189 903 1136 q 724 1274 796 1243 q 571 1305 652 1305 q 418 1274 489 1305 q 293 1189 346 1243 q 208 1064 239 1136 q 177 911 177 992 q 208 757 177 829 q 293 632 239 686 q 418 548 346 579 q 571 517 489 517 l 571 517 "},"l":{"x_min":92.59375,"x_max":566.71875,"ha":567,"o":"m 92 1389 l 178 1389 l 178 474 q 201 337 178 406 q 272 211 225 267 q 393 118 320 154 q 566 82 466 82 l 566 0 q 369 40 456 0 q 219 148 281 81 q 125 300 158 215 q 92 475 92 386 l 92 1389 l 92 1389 "},"8":{"x_min":92.59375,"x_max":1040.828125,"ha":1041,"o":"m 570 1389 q 662 1372 615 1389 q 746 1323 709 1356 q 807 1242 783 1290 q 830 1128 830 1193 q 817 1051 828 1088 q 785 983 807 1019 q 724 920 763 947 q 768 907 738 920 q 833 870 798 895 q 905 807 868 845 q 972 720 941 770 q 1021 609 1002 671 q 1040 474 1040 547 q 1001 285 1040 372 q 897 135 963 199 q 746 36 832 72 q 566 0 661 0 q 457 13 513 0 q 349 54 401 26 q 250 121 297 81 q 168 213 203 161 q 112 331 133 266 q 92 474 92 397 q 113 620 92 555 q 168 734 135 685 q 241 819 201 784 q 316 877 280 854 q 380 910 352 900 q 416 921 407 921 q 354 981 375 945 q 323 1049 333 1016 q 310 1128 312 1087 q 336 1245 310 1196 q 402 1326 362 1295 q 487 1373 441 1358 q 570 1389 532 1389 l 570 1389 m 567 81 q 719 112 648 81 q 843 195 790 142 q 926 319 896 249 q 957 471 957 390 q 926 623 957 551 q 843 747 896 694 q 719 830 790 800 q 567 861 648 861 q 416 830 487 861 q 292 747 345 800 q 208 623 238 694 q 177 471 177 551 q 208 319 177 390 q 292 195 238 249 q 416 112 345 142 q 567 81 487 81 l 567 81 m 571 953 q 639 967 607 953 q 694 1005 671 981 q 732 1060 718 1028 q 746 1128 746 1092 q 732 1196 746 1164 q 694 1252 718 1228 q 639 1289 671 1276 q 571 1303 607 1303 q 503 1289 535 1303 q 447 1252 471 1276 q 410 1196 424 1228 q 396 1128 396 1164 q 410 1060 396 1092 q 447 1005 424 1028 q 503 967 471 981 q 571 953 535 953 l 571 953 "},"p":{"x_min":92.59375,"x_max":1018.59375,"ha":1019,"o":"m 92 930 l 175 930 l 175 724 q 222 792 195 763 q 280 843 250 821 q 343 879 311 864 q 406 904 375 894 q 556 930 477 927 q 744 892 659 930 q 890 790 829 854 q 984 643 951 726 q 1018 466 1018 559 q 985 290 1018 374 q 891 143 951 207 q 745 43 830 80 q 558 5 661 5 q 407 30 479 8 q 344 54 376 39 q 280 90 311 69 q 223 140 250 112 q 175 207 196 169 l 175 -458 l 92 -458 l 92 930 l 92 930 m 555 86 q 704 116 634 86 q 825 197 774 146 q 907 318 876 249 q 937 467 937 388 q 907 615 937 546 q 825 737 876 685 q 704 819 774 788 q 555 849 634 849 q 406 819 475 849 q 285 737 337 788 q 204 615 234 685 q 174 467 174 546 q 204 318 174 388 q 285 197 234 249 q 406 116 337 146 q 555 86 475 86 l 555 86 "},"4":{"x_min":92.59375,"x_max":1045.453125,"ha":1045,"o":"m 853 713 l 1045 713 l 1045 627 l 853 627 l 853 0 l 767 0 l 767 628 l 92 628 l 852 1389 l 853 713 l 853 713 m 769 713 l 769 1190 l 292 713 l 767 713 l 769 713 l 769 713 "},"R":{"x_min":92.59375,"x_max":1018.59375,"ha":1019,"o":"m 92 1389 l 176 1389 l 176 1188 q 228 1254 200 1226 q 288 1304 257 1283 q 351 1340 319 1326 q 413 1364 383 1354 q 555 1389 482 1386 q 745 1348 660 1389 q 892 1242 831 1308 q 985 1094 952 1176 q 1018 926 1018 1011 q 999 790 1018 852 q 947 676 980 727 q 869 585 913 625 q 772 518 824 545 q 665 476 721 490 q 556 463 610 463 q 527 464 543 463 q 498 469 514 466 q 464 475 481 471 l 940 0 l 825 0 l 175 649 l 175 0 l 92 0 l 92 1389 l 92 1389 m 557 539 q 707 569 637 539 q 829 652 776 600 q 911 774 881 704 q 941 924 941 844 q 911 1073 941 1003 q 829 1195 881 1143 q 707 1278 776 1248 q 557 1308 637 1308 q 407 1278 477 1308 q 285 1195 337 1248 q 203 1073 233 1143 q 173 924 173 1003 q 203 774 173 844 q 285 652 233 704 q 407 569 337 600 q 557 539 477 539 l 557 539 "},"\r":{"x_min":0,"x_max":0,"ha":0},"o":{"x_min":92.59375,"x_max":1026.015625,"ha":1026,"o":"m 92 466 q 129 648 92 563 q 229 796 165 733 q 377 896 292 860 q 559 933 463 933 q 740 896 655 933 q 889 796 825 860 q 989 648 952 733 q 1026 466 1026 563 q 989 285 1026 370 q 889 136 952 200 q 740 36 825 73 q 559 0 655 0 q 377 36 463 0 q 229 136 292 73 q 129 285 165 200 q 92 466 92 370 l 92 466 m 559 79 q 710 110 639 79 q 832 193 780 140 q 915 315 885 245 q 946 466 946 386 q 915 617 946 547 q 832 740 885 688 q 710 823 780 792 q 559 853 639 853 q 408 823 478 853 q 285 740 337 792 q 202 617 233 688 q 172 466 172 547 q 202 315 172 386 q 285 193 233 245 q 408 110 337 140 q 559 79 478 79 l 559 79 "},"5":{"x_min":92.59375,"x_max":925.078125,"ha":925,"o":"m 925 1389 l 925 1302 l 174 1302 l 174 869 q 258 919 211 901 q 347 945 305 937 q 446 956 396 955 q 642 915 553 956 q 793 808 730 875 q 890 656 856 741 q 925 479 925 570 q 885 282 925 371 q 779 131 845 194 q 626 34 713 68 q 445 0 539 0 q 319 18 382 1 q 263 36 292 25 q 204 62 234 47 q 146 100 175 78 q 92 149 117 121 l 159 212 q 195 170 175 187 q 239 139 216 152 q 287 116 262 125 q 334 101 312 107 q 444 86 387 87 q 622 123 548 86 q 745 217 697 160 q 816 344 793 275 q 838 476 838 413 q 803 648 838 574 q 710 772 767 722 q 583 848 653 822 q 444 874 513 874 q 321 854 376 874 q 223 805 266 835 q 147 737 179 775 q 92 663 114 700 l 92 1389 l 925 1389 l 925 1389 "}}}
